<svg width="19" height="21" viewBox="0 0 19 21" fill="none" xmlns="http://www.w3.org/2000/svg">
<path d="M2.375 2.625V16.625C2.375 17.0891 2.54181 17.5342 2.83875 17.8624C3.13568 18.1906 3.53841 18.375 3.95833 18.375H16.625" stroke="black" stroke-width="2" stroke-linecap="round" stroke-linejoin="round"/>
<path d="M5.54169 9.80612C5.54171 9.69031 5.58327 9.57924 5.65727 9.49725L7.2406 7.74725C7.27737 7.7065 7.32105 7.67418 7.36914 7.65212C7.41723 7.63007 7.46879 7.61871 7.52085 7.61871C7.57292 7.61871 7.62447 7.63007 7.67256 7.65212C7.72065 7.67418 7.76433 7.7065 7.8011 7.74725L10.4073 10.6277C10.444 10.6685 10.4877 10.7008 10.5358 10.7229C10.5839 10.7449 10.6355 10.7563 10.6875 10.7563C10.7396 10.7563 10.7911 10.7449 10.8392 10.7229C10.8873 10.7008 10.931 10.6685 10.9678 10.6277L14.3656 6.87225C14.4209 6.81096 14.4914 6.76918 14.5682 6.75221C14.645 6.73523 14.7247 6.74382 14.7971 6.77689C14.8694 6.80996 14.9313 6.86602 14.9749 6.93798C15.0184 7.00993 15.0417 7.09455 15.0417 7.18112V14C15.0417 14.2321 14.9583 14.4546 14.8098 14.6187C14.6613 14.7828 14.46 14.875 14.25 14.875H6.33335C6.12339 14.875 5.92203 14.7828 5.77356 14.6187C5.62509 14.4546 5.54169 14.2321 5.54169 14V9.80612Z" stroke="black" stroke-width="2" stroke-linecap="round" stroke-linejoin="round"/>
</svg>
