<svg width="19" height="19" viewBox="0 0 19 19" fill="none" xmlns="http://www.w3.org/2000/svg">
<path d="M2.375 5.54167V3.95833C2.375 3.53841 2.54181 3.13568 2.83875 2.83875C3.13568 2.54181 3.53841 2.375 3.95833 2.375H5.54167" stroke="black" stroke-width="2" stroke-linecap="round" stroke-linejoin="round"/>
<path d="M13.4583 2.375H15.0416C15.4616 2.375 15.8643 2.54181 16.1612 2.83875C16.4582 3.13568 16.625 3.53841 16.625 3.95833V5.54167" stroke="black" stroke-width="2" stroke-linecap="round" stroke-linejoin="round"/>
<path d="M16.625 13.4583V15.0416C16.625 15.4616 16.4582 15.8643 16.1612 16.1612C15.8643 16.4582 15.4616 16.625 15.0416 16.625H13.4583" stroke="black" stroke-width="2" stroke-linecap="round" stroke-linejoin="round"/>
<path d="M5.54167 16.625H3.95833C3.53841 16.625 3.13568 16.4582 2.83875 16.1612C2.54181 15.8643 2.375 15.4616 2.375 15.0416V13.4583" stroke="black" stroke-width="2" stroke-linecap="round" stroke-linejoin="round"/>
<path d="M6.33331 11.0833C6.33331 11.0833 7.52081 12.6666 9.49998 12.6666C11.4791 12.6666 12.6666 11.0833 12.6666 11.0833" stroke="black" stroke-width="2" stroke-linecap="round" stroke-linejoin="round"/>
<path d="M7.125 7.125H7.13375" stroke="black" stroke-width="2" stroke-linecap="round" stroke-linejoin="round"/>
<path d="M11.875 7.125H11.8838" stroke="black" stroke-width="2" stroke-linecap="round" stroke-linejoin="round"/>
</svg>
